# xmcd
#
# Track frame offsets:
#	182
#	13495
#	27320
#	41660
#	54087
#	69002
#	79830
#	92942
#	105732
#	120157
#	134100
#	147700
#	161307
#	175365
#	187090
#
# Disc length: 2714
#
# Revision: 2
# Processed by: cddbd v1.5.1PL0 Copyright (c) Steve Scherf et al.
# Submitted via: CDmax 2.0
# Normalized: r1:DSETVAR1
#
DISCID=d10a980f
DTITLE=Various Artist - Bluebird Blues and Heritage Sampler
DYEAR=1996
DGENRE=Blues
TTITLE0=Big Maceo - Worried Life Blues
TTITLE1=Sonny Boy Williamson - Good Morning School Girl
TTITLE2=Tampa Red - I'll Get a Break Someday
TTITLE3=Four Women Blues - I'm Goin Back Home
TTITLE4=Memphis Slim - Beer Drinkin' Woman (Take 2)
TTITLE5=Bill "Jazz" Gillum - Don't Scandalize My Name
TTITLE6=Four Women Blues - Hardworking Woman Blues
TTITLE7=Tampa Red - Drinkin' My Blues Away
TTITLE8=Big Maceo - Ramblin' Mind Blues
TTITLE9=Sonny Boy Williamson - Blue Bird Blues
TTITLE10=Four Women Blues - Double Trouble Blues
TTITLE11=Tampa Red - I'll Kill Your Soul (and Dare Your Spirit To Move)
TTITLE12=Memphis Slim - Grinder Man Blues
TTITLE13=Bill "Jazz" Gillum - Good Old 51 Highway
TTITLE14=Four Women Blues - Staggering Blues
EXTD=LABEL =RCA Records - General Electric, USA - BMG Entertainment\nID =rjc-67431-2\nUPC =none\nCOPYRIGHT =1996
EXTT0=
EXTT1=
EXTT2=
EXTT3=
EXTT4=
EXTT5=
EXTT6=
EXTT7=
EXTT8=
EXTT9=
EXTT10=
EXTT11=
EXTT12=
EXTT13=
EXTT14=
PLAYORDER=
